<mxfile host="app.diagrams.net" agent="Mozilla/5.0 (Windows NT 10.0; Win64; x64; rv:139.0) Gecko/20100101 Firefox/139.0" version="27.1.3">
  <diagram name="Page-1" id="7vDp-ZLNi6fbdm9bJgIu">
    <mxGraphModel dx="1395" dy="888" grid="1" gridSize="10" guides="1" tooltips="1" connect="1" arrows="1" fold="1" page="1" pageScale="1" pageWidth="1654" pageHeight="2336" math="0" shadow="0">
      <root>
        <mxCell id="0" />
        <mxCell id="1" parent="0" />
        <mxCell id="HUB114z-Lg2DmD3fIi0h-1" value="SensorManager" style="swimlane;fontStyle=1;align=center;verticalAlign=top;childLayout=stackLayout;horizontal=1;startSize=26;horizontalStack=0;resizeParent=1;resizeParentMax=0;resizeLast=0;collapsible=1;marginBottom=0;whiteSpace=wrap;html=1;" vertex="1" parent="1">
          <mxGeometry x="200" y="280" width="240" height="190" as="geometry" />
        </mxCell>
        <mxCell id="HUB114z-Lg2DmD3fIi0h-3" value="" style="line;strokeWidth=1;fillColor=none;align=left;verticalAlign=middle;spacingTop=-1;spacingLeft=3;spacingRight=3;rotatable=0;labelPosition=right;points=[];portConstraint=eastwest;strokeColor=inherit;" vertex="1" parent="HUB114z-Lg2DmD3fIi0h-1">
          <mxGeometry y="26" width="240" height="8" as="geometry" />
        </mxCell>
        <mxCell id="HUB114z-Lg2DmD3fIi0h-4" value="&lt;div&gt;+ update_sensors()&lt;/div&gt;&lt;div&gt;+ reset()&lt;/div&gt;&lt;div&gt;&lt;br&gt;&lt;/div&gt;&lt;div&gt;+ inner_temp1(): float&lt;/div&gt;&lt;div&gt;&lt;div&gt;+ inner_temp2(): float&lt;/div&gt;&lt;div&gt;&lt;div&gt;+ inner_humidity(): float&lt;/div&gt;&lt;div&gt;+ inner_weight(): float&lt;/div&gt;&lt;div&gt;&lt;br&gt;&lt;div&gt;&lt;div&gt;+ magnetron_temp1(): float&lt;div&gt;+ magnetron_temp2(): float&lt;/div&gt;&lt;/div&gt;&lt;/div&gt;&lt;/div&gt;&lt;/div&gt;&lt;/div&gt;" style="text;strokeColor=none;fillColor=none;align=left;verticalAlign=top;spacingLeft=4;spacingRight=4;overflow=hidden;rotatable=0;points=[[0,0.5],[1,0.5]];portConstraint=eastwest;whiteSpace=wrap;html=1;" vertex="1" parent="HUB114z-Lg2DmD3fIi0h-1">
          <mxGeometry y="34" width="240" height="156" as="geometry" />
        </mxCell>
        <mxCell id="HUB114z-Lg2DmD3fIi0h-5" value="SimulationSensorTemp1" style="swimlane;fontStyle=1;align=center;verticalAlign=top;childLayout=stackLayout;horizontal=1;startSize=26;horizontalStack=0;resizeParent=1;resizeParentMax=0;resizeLast=0;collapsible=1;marginBottom=0;whiteSpace=wrap;html=1;" vertex="1" parent="1">
          <mxGeometry x="600" y="40" width="240" height="90" as="geometry" />
        </mxCell>
        <mxCell id="HUB114z-Lg2DmD3fIi0h-6" value="" style="line;strokeWidth=1;fillColor=none;align=left;verticalAlign=middle;spacingTop=-1;spacingLeft=3;spacingRight=3;rotatable=0;labelPosition=right;points=[];portConstraint=eastwest;strokeColor=inherit;" vertex="1" parent="HUB114z-Lg2DmD3fIi0h-5">
          <mxGeometry y="26" width="240" height="8" as="geometry" />
        </mxCell>
        <mxCell id="HUB114z-Lg2DmD3fIi0h-7" value="&lt;div&gt;+ get()&lt;/div&gt;&lt;div&gt;+ update()&lt;/div&gt;&lt;div&gt;+ reset()&lt;/div&gt;" style="text;strokeColor=none;fillColor=none;align=left;verticalAlign=top;spacingLeft=4;spacingRight=4;overflow=hidden;rotatable=0;points=[[0,0.5],[1,0.5]];portConstraint=eastwest;whiteSpace=wrap;html=1;" vertex="1" parent="HUB114z-Lg2DmD3fIi0h-5">
          <mxGeometry y="34" width="240" height="56" as="geometry" />
        </mxCell>
        <mxCell id="HUB114z-Lg2DmD3fIi0h-8" value="SimulationSensorTemp2" style="swimlane;fontStyle=1;align=center;verticalAlign=top;childLayout=stackLayout;horizontal=1;startSize=26;horizontalStack=0;resizeParent=1;resizeParentMax=0;resizeLast=0;collapsible=1;marginBottom=0;whiteSpace=wrap;html=1;" vertex="1" parent="1">
          <mxGeometry x="600" y="160" width="240" height="100" as="geometry" />
        </mxCell>
        <mxCell id="HUB114z-Lg2DmD3fIi0h-9" value="" style="line;strokeWidth=1;fillColor=none;align=left;verticalAlign=middle;spacingTop=-1;spacingLeft=3;spacingRight=3;rotatable=0;labelPosition=right;points=[];portConstraint=eastwest;strokeColor=inherit;" vertex="1" parent="HUB114z-Lg2DmD3fIi0h-8">
          <mxGeometry y="26" width="240" height="8" as="geometry" />
        </mxCell>
        <mxCell id="HUB114z-Lg2DmD3fIi0h-10" value="&lt;div&gt;+ get()&lt;/div&gt;&lt;div&gt;+ update()&lt;/div&gt;&lt;div&gt;+ reset()&lt;/div&gt;" style="text;strokeColor=none;fillColor=none;align=left;verticalAlign=top;spacingLeft=4;spacingRight=4;overflow=hidden;rotatable=0;points=[[0,0.5],[1,0.5]];portConstraint=eastwest;whiteSpace=wrap;html=1;" vertex="1" parent="HUB114z-Lg2DmD3fIi0h-8">
          <mxGeometry y="34" width="240" height="66" as="geometry" />
        </mxCell>
        <mxCell id="HUB114z-Lg2DmD3fIi0h-11" value="SimulationSensorHumidity" style="swimlane;fontStyle=1;align=center;verticalAlign=top;childLayout=stackLayout;horizontal=1;startSize=26;horizontalStack=0;resizeParent=1;resizeParentMax=0;resizeLast=0;collapsible=1;marginBottom=0;whiteSpace=wrap;html=1;" vertex="1" parent="1">
          <mxGeometry x="600" y="280" width="240" height="90" as="geometry" />
        </mxCell>
        <mxCell id="HUB114z-Lg2DmD3fIi0h-12" value="" style="line;strokeWidth=1;fillColor=none;align=left;verticalAlign=middle;spacingTop=-1;spacingLeft=3;spacingRight=3;rotatable=0;labelPosition=right;points=[];portConstraint=eastwest;strokeColor=inherit;" vertex="1" parent="HUB114z-Lg2DmD3fIi0h-11">
          <mxGeometry y="26" width="240" height="8" as="geometry" />
        </mxCell>
        <mxCell id="HUB114z-Lg2DmD3fIi0h-13" value="&lt;div&gt;+ get()&lt;/div&gt;&lt;div&gt;+ update()&lt;/div&gt;&lt;div&gt;+ reset()&lt;/div&gt;" style="text;strokeColor=none;fillColor=none;align=left;verticalAlign=top;spacingLeft=4;spacingRight=4;overflow=hidden;rotatable=0;points=[[0,0.5],[1,0.5]];portConstraint=eastwest;whiteSpace=wrap;html=1;" vertex="1" parent="HUB114z-Lg2DmD3fIi0h-11">
          <mxGeometry y="34" width="240" height="56" as="geometry" />
        </mxCell>
        <mxCell id="HUB114z-Lg2DmD3fIi0h-14" value="SimulationSensorWeight" style="swimlane;fontStyle=1;align=center;verticalAlign=top;childLayout=stackLayout;horizontal=1;startSize=26;horizontalStack=0;resizeParent=1;resizeParentMax=0;resizeLast=0;collapsible=1;marginBottom=0;whiteSpace=wrap;html=1;" vertex="1" parent="1">
          <mxGeometry x="600" y="400" width="240" height="90" as="geometry" />
        </mxCell>
        <mxCell id="HUB114z-Lg2DmD3fIi0h-15" value="" style="line;strokeWidth=1;fillColor=none;align=left;verticalAlign=middle;spacingTop=-1;spacingLeft=3;spacingRight=3;rotatable=0;labelPosition=right;points=[];portConstraint=eastwest;strokeColor=inherit;" vertex="1" parent="HUB114z-Lg2DmD3fIi0h-14">
          <mxGeometry y="26" width="240" height="8" as="geometry" />
        </mxCell>
        <mxCell id="HUB114z-Lg2DmD3fIi0h-16" value="&lt;div&gt;+ get()&lt;/div&gt;&lt;div&gt;+ update()&lt;/div&gt;&lt;div&gt;+ reset()&lt;/div&gt;" style="text;strokeColor=none;fillColor=none;align=left;verticalAlign=top;spacingLeft=4;spacingRight=4;overflow=hidden;rotatable=0;points=[[0,0.5],[1,0.5]];portConstraint=eastwest;whiteSpace=wrap;html=1;" vertex="1" parent="HUB114z-Lg2DmD3fIi0h-14">
          <mxGeometry y="34" width="240" height="56" as="geometry" />
        </mxCell>
        <mxCell id="HUB114z-Lg2DmD3fIi0h-17" value="SimulationSensorMagnetronTemp1" style="swimlane;fontStyle=1;align=center;verticalAlign=top;childLayout=stackLayout;horizontal=1;startSize=26;horizontalStack=0;resizeParent=1;resizeParentMax=0;resizeLast=0;collapsible=1;marginBottom=0;whiteSpace=wrap;html=1;" vertex="1" parent="1">
          <mxGeometry x="600" y="560" width="240" height="90" as="geometry" />
        </mxCell>
        <mxCell id="HUB114z-Lg2DmD3fIi0h-18" value="" style="line;strokeWidth=1;fillColor=none;align=left;verticalAlign=middle;spacingTop=-1;spacingLeft=3;spacingRight=3;rotatable=0;labelPosition=right;points=[];portConstraint=eastwest;strokeColor=inherit;" vertex="1" parent="HUB114z-Lg2DmD3fIi0h-17">
          <mxGeometry y="26" width="240" height="8" as="geometry" />
        </mxCell>
        <mxCell id="HUB114z-Lg2DmD3fIi0h-19" value="&lt;div&gt;+ get()&lt;/div&gt;&lt;div&gt;+ update()&lt;/div&gt;&lt;div&gt;+ reset()&lt;/div&gt;" style="text;strokeColor=none;fillColor=none;align=left;verticalAlign=top;spacingLeft=4;spacingRight=4;overflow=hidden;rotatable=0;points=[[0,0.5],[1,0.5]];portConstraint=eastwest;whiteSpace=wrap;html=1;" vertex="1" parent="HUB114z-Lg2DmD3fIi0h-17">
          <mxGeometry y="34" width="240" height="56" as="geometry" />
        </mxCell>
        <mxCell id="HUB114z-Lg2DmD3fIi0h-21" value="&lt;div&gt;SimulationSensorMagnetronTemp2&lt;/div&gt;" style="swimlane;fontStyle=1;align=center;verticalAlign=top;childLayout=stackLayout;horizontal=1;startSize=26;horizontalStack=0;resizeParent=1;resizeParentMax=0;resizeLast=0;collapsible=1;marginBottom=0;whiteSpace=wrap;html=1;" vertex="1" parent="1">
          <mxGeometry x="600" y="680" width="240" height="90" as="geometry" />
        </mxCell>
        <mxCell id="HUB114z-Lg2DmD3fIi0h-22" value="" style="line;strokeWidth=1;fillColor=none;align=left;verticalAlign=middle;spacingTop=-1;spacingLeft=3;spacingRight=3;rotatable=0;labelPosition=right;points=[];portConstraint=eastwest;strokeColor=inherit;" vertex="1" parent="HUB114z-Lg2DmD3fIi0h-21">
          <mxGeometry y="26" width="240" height="8" as="geometry" />
        </mxCell>
        <mxCell id="HUB114z-Lg2DmD3fIi0h-23" value="&lt;div&gt;+ get()&lt;/div&gt;&lt;div&gt;+ update()&lt;/div&gt;&lt;div&gt;+ reset()&lt;/div&gt;" style="text;strokeColor=none;fillColor=none;align=left;verticalAlign=top;spacingLeft=4;spacingRight=4;overflow=hidden;rotatable=0;points=[[0,0.5],[1,0.5]];portConstraint=eastwest;whiteSpace=wrap;html=1;" vertex="1" parent="HUB114z-Lg2DmD3fIi0h-21">
          <mxGeometry y="34" width="240" height="56" as="geometry" />
        </mxCell>
        <mxCell id="HUB114z-Lg2DmD3fIi0h-24" value="SimulationSensor" style="swimlane;fontStyle=1;align=center;verticalAlign=top;childLayout=stackLayout;horizontal=1;startSize=26;horizontalStack=0;resizeParent=1;resizeParentMax=0;resizeLast=0;collapsible=1;marginBottom=0;whiteSpace=wrap;html=1;" vertex="1" parent="1">
          <mxGeometry x="1000" y="280" width="240" height="90" as="geometry" />
        </mxCell>
        <mxCell id="HUB114z-Lg2DmD3fIi0h-25" value="" style="line;strokeWidth=1;fillColor=none;align=left;verticalAlign=middle;spacingTop=-1;spacingLeft=3;spacingRight=3;rotatable=0;labelPosition=right;points=[];portConstraint=eastwest;strokeColor=inherit;" vertex="1" parent="HUB114z-Lg2DmD3fIi0h-24">
          <mxGeometry y="26" width="240" height="8" as="geometry" />
        </mxCell>
        <mxCell id="HUB114z-Lg2DmD3fIi0h-26" value="&lt;div&gt;+ get()&lt;/div&gt;&lt;div&gt;+ update()&lt;/div&gt;&lt;div&gt;+ reset()&lt;/div&gt;" style="text;strokeColor=none;fillColor=none;align=left;verticalAlign=top;spacingLeft=4;spacingRight=4;overflow=hidden;rotatable=0;points=[[0,0.5],[1,0.5]];portConstraint=eastwest;whiteSpace=wrap;html=1;" vertex="1" parent="HUB114z-Lg2DmD3fIi0h-24">
          <mxGeometry y="34" width="240" height="56" as="geometry" />
        </mxCell>
        <mxCell id="HUB114z-Lg2DmD3fIi0h-27" value="" style="endArrow=open;endSize=12;dashed=1;html=1;rounded=0;exitX=1;exitY=0.5;exitDx=0;exitDy=0;entryX=0;entryY=0.5;entryDx=0;entryDy=0;" edge="1" parent="1" source="HUB114z-Lg2DmD3fIi0h-4" target="HUB114z-Lg2DmD3fIi0h-7">
          <mxGeometry width="160" relative="1" as="geometry">
            <mxPoint x="480" y="300" as="sourcePoint" />
            <mxPoint x="740" y="330" as="targetPoint" />
          </mxGeometry>
        </mxCell>
        <mxCell id="HUB114z-Lg2DmD3fIi0h-29" value="" style="endArrow=open;endSize=12;dashed=1;html=1;rounded=0;exitX=1;exitY=0.5;exitDx=0;exitDy=0;entryX=0;entryY=0.5;entryDx=0;entryDy=0;" edge="1" parent="1" source="HUB114z-Lg2DmD3fIi0h-4" target="HUB114z-Lg2DmD3fIi0h-10">
          <mxGeometry width="160" relative="1" as="geometry">
            <mxPoint x="470" y="372" as="sourcePoint" />
            <mxPoint x="708" y="180" as="targetPoint" />
          </mxGeometry>
        </mxCell>
        <mxCell id="HUB114z-Lg2DmD3fIi0h-30" value="" style="endArrow=open;endSize=12;dashed=1;html=1;rounded=0;exitX=1;exitY=0.5;exitDx=0;exitDy=0;entryX=0;entryY=0.75;entryDx=0;entryDy=0;" edge="1" parent="1" source="HUB114z-Lg2DmD3fIi0h-4" target="HUB114z-Lg2DmD3fIi0h-11">
          <mxGeometry width="160" relative="1" as="geometry">
            <mxPoint x="640" y="402" as="sourcePoint" />
            <mxPoint x="878" y="210" as="targetPoint" />
          </mxGeometry>
        </mxCell>
        <mxCell id="HUB114z-Lg2DmD3fIi0h-31" value="" style="endArrow=open;endSize=12;dashed=1;html=1;rounded=0;entryX=0;entryY=0.5;entryDx=0;entryDy=0;exitX=1;exitY=0.5;exitDx=0;exitDy=0;" edge="1" parent="1" source="HUB114z-Lg2DmD3fIi0h-4" target="HUB114z-Lg2DmD3fIi0h-16">
          <mxGeometry width="160" relative="1" as="geometry">
            <mxPoint x="370" y="290" as="sourcePoint" />
            <mxPoint x="778" y="300" as="targetPoint" />
          </mxGeometry>
        </mxCell>
        <mxCell id="HUB114z-Lg2DmD3fIi0h-32" value="" style="endArrow=open;endSize=12;dashed=1;html=1;rounded=0;exitX=1;exitY=0.5;exitDx=0;exitDy=0;entryX=0;entryY=0.5;entryDx=0;entryDy=0;" edge="1" parent="1" source="HUB114z-Lg2DmD3fIi0h-4" target="HUB114z-Lg2DmD3fIi0h-19">
          <mxGeometry width="160" relative="1" as="geometry">
            <mxPoint x="600" y="522" as="sourcePoint" />
            <mxPoint x="838" y="330" as="targetPoint" />
          </mxGeometry>
        </mxCell>
        <mxCell id="HUB114z-Lg2DmD3fIi0h-33" value="" style="endArrow=open;endSize=12;dashed=1;html=1;rounded=0;exitX=1;exitY=0.5;exitDx=0;exitDy=0;entryX=0;entryY=0.5;entryDx=0;entryDy=0;" edge="1" parent="1" source="HUB114z-Lg2DmD3fIi0h-4" target="HUB114z-Lg2DmD3fIi0h-23">
          <mxGeometry width="160" relative="1" as="geometry">
            <mxPoint x="840" y="642" as="sourcePoint" />
            <mxPoint x="1078" y="450" as="targetPoint" />
          </mxGeometry>
        </mxCell>
        <mxCell id="HUB114z-Lg2DmD3fIi0h-34" value="" style="endArrow=block;endSize=16;endFill=0;html=1;rounded=0;exitX=1;exitY=0.5;exitDx=0;exitDy=0;entryX=0;entryY=0.25;entryDx=0;entryDy=0;" edge="1" parent="1" source="HUB114z-Lg2DmD3fIi0h-7" target="HUB114z-Lg2DmD3fIi0h-24">
          <mxGeometry width="160" relative="1" as="geometry">
            <mxPoint x="870" y="330" as="sourcePoint" />
            <mxPoint x="1030" y="330" as="targetPoint" />
          </mxGeometry>
        </mxCell>
        <mxCell id="HUB114z-Lg2DmD3fIi0h-35" value="" style="endArrow=block;endSize=16;endFill=0;html=1;rounded=0;exitX=1;exitY=0.5;exitDx=0;exitDy=0;entryX=0;entryY=0.25;entryDx=0;entryDy=0;" edge="1" parent="1" source="HUB114z-Lg2DmD3fIi0h-10" target="HUB114z-Lg2DmD3fIi0h-24">
          <mxGeometry width="160" relative="1" as="geometry">
            <mxPoint x="1060" y="240" as="sourcePoint" />
            <mxPoint x="1080" y="250" as="targetPoint" />
          </mxGeometry>
        </mxCell>
        <mxCell id="HUB114z-Lg2DmD3fIi0h-36" value="" style="endArrow=block;endSize=16;endFill=0;html=1;rounded=0;exitX=1;exitY=0.5;exitDx=0;exitDy=0;entryX=0;entryY=0.25;entryDx=0;entryDy=0;" edge="1" parent="1" source="HUB114z-Lg2DmD3fIi0h-13" target="HUB114z-Lg2DmD3fIi0h-24">
          <mxGeometry width="160" relative="1" as="geometry">
            <mxPoint x="1100" y="280" as="sourcePoint" />
            <mxPoint x="1340" y="448" as="targetPoint" />
          </mxGeometry>
        </mxCell>
        <mxCell id="HUB114z-Lg2DmD3fIi0h-37" value="" style="endArrow=block;endSize=16;endFill=0;html=1;rounded=0;exitX=1;exitY=0.5;exitDx=0;exitDy=0;entryX=0;entryY=0.25;entryDx=0;entryDy=0;" edge="1" parent="1" source="HUB114z-Lg2DmD3fIi0h-16" target="HUB114z-Lg2DmD3fIi0h-24">
          <mxGeometry width="160" relative="1" as="geometry">
            <mxPoint x="1150" y="340" as="sourcePoint" />
            <mxPoint x="1390" y="508" as="targetPoint" />
          </mxGeometry>
        </mxCell>
        <mxCell id="HUB114z-Lg2DmD3fIi0h-38" value="" style="endArrow=block;endSize=16;endFill=0;html=1;rounded=0;exitX=1;exitY=0.5;exitDx=0;exitDy=0;entryX=0;entryY=0.25;entryDx=0;entryDy=0;" edge="1" parent="1" source="HUB114z-Lg2DmD3fIi0h-19" target="HUB114z-Lg2DmD3fIi0h-24">
          <mxGeometry width="160" relative="1" as="geometry">
            <mxPoint x="1210" y="350" as="sourcePoint" />
            <mxPoint x="1450" y="518" as="targetPoint" />
          </mxGeometry>
        </mxCell>
        <mxCell id="HUB114z-Lg2DmD3fIi0h-39" value="" style="endArrow=block;endSize=16;endFill=0;html=1;rounded=0;exitX=1;exitY=0.5;exitDx=0;exitDy=0;entryX=0;entryY=0.25;entryDx=0;entryDy=0;" edge="1" parent="1" source="HUB114z-Lg2DmD3fIi0h-23" target="HUB114z-Lg2DmD3fIi0h-24">
          <mxGeometry width="160" relative="1" as="geometry">
            <mxPoint x="1090" y="360" as="sourcePoint" />
            <mxPoint x="1330" y="528" as="targetPoint" />
          </mxGeometry>
        </mxCell>
      </root>
    </mxGraphModel>
  </diagram>
</mxfile>
